<svg xmlns="http://www.w3.org/2000/svg" width="435" height="185.395" viewBox="0 0 435 185.395">
  <g id="cs_white_logo" transform="translate(-97.333 -263.462)">
    <g id="Grupo_233" data-name="Grupo 233" transform="translate(416.663 356.721)">
      <g id="Grupo_232" data-name="Grupo 232" transform="translate(0 0)">
        <path id="Caminho_429" data-name="Caminho 429" d="M672.553,493.164a11.5,11.5,0,0,1-9.812-5.484l-36.53-59.49-36.532,59.49a11.5,11.5,0,1,1-19.6-12.038l40.42-65.823a18.439,18.439,0,0,1,31.428,0l40.419,65.821a11.5,11.5,0,0,1-9.791,17.522Z" transform="translate(-568.375 -401.028)" fill="#fff"/>
      </g>
    </g>
    <g id="Grupo_235" data-name="Grupo 235" transform="translate(310.409 356.721)">
      <g id="Grupo_234" data-name="Grupo 234">
        <path id="Caminho_430" data-name="Caminho 430" d="M469.475,493.164a18.32,18.32,0,0,1-15.714-8.791l-40.419-65.822a11.5,11.5,0,1,1,19.6-12.038L469.475,466,506,406.514a11.5,11.5,0,1,1,19.6,12.038l-40.419,65.822A18.32,18.32,0,0,1,469.475,493.164Z" transform="translate(-411.64 -401.027)" fill="#fff"/>
      </g>
    </g>
    <g id="Grupo_237" data-name="Grupo 237" transform="translate(247.694 356.617)">
      <g id="Grupo_236" data-name="Grupo 236">
        <path id="Caminho_431" data-name="Caminho 431" d="M330.472,400.875h2.857a11.331,11.331,0,0,1,11.342,11.32v69.6a11.331,11.331,0,0,1-11.342,11.321h-2.857a11.331,11.331,0,0,1-11.342-11.321v-69.6A11.331,11.331,0,0,1,330.472,400.875Z" transform="translate(-319.13 -400.875)" fill="#fff"/>
      </g>
    </g>
    <g id="Grupo_239" data-name="Grupo 239" transform="translate(97.806 356.721)">
      <g id="Grupo_238" data-name="Grupo 238">
        <path id="Caminho_432" data-name="Caminho 432" d="M155.867,493.164h0a18.317,18.317,0,0,1-15.712-8.793L99.733,418.551a11.5,11.5,0,1,1,19.6-12.038L155.867,466l36.53-59.49A11.5,11.5,0,1,1,212,418.551l-40.419,65.822A18.321,18.321,0,0,1,155.867,493.164Z" transform="translate(-98.031 -401.027)" fill="#fff"/>
      </g>
    </g>
    <g id="Grupo_241" data-name="Grupo 241" transform="translate(416.663 263.996)">
      <g id="Grupo_240" data-name="Grupo 240">
        <path id="Caminho_433" data-name="Caminho 433" d="M672.553,356.384a11.5,11.5,0,0,1-9.812-5.484l-36.532-59.488L589.679,350.9a11.5,11.5,0,0,1-19.6-12.038L610.5,273.04a18.439,18.439,0,0,1,31.428,0l40.419,65.819a11.5,11.5,0,0,1-9.791,17.522Z" transform="translate(-568.375 -264.249)" fill="#fff"/>
      </g>
    </g>
    <g id="Grupo_243" data-name="Grupo 243" transform="translate(333.419 263.488)">
      <g id="Grupo_242" data-name="Grupo 242">
        <path id="Caminho_434" data-name="Caminho 434" d="M480.4,356.143a62.984,62.984,0,0,1-19.575-3.259,59.339,59.339,0,0,1-10.171-4.423A10.019,10.019,0,0,1,447.24,334.2h0a10.219,10.219,0,0,1,13.394-3.329,53.662,53.662,0,0,0,6.747,3.03,39.968,39.968,0,0,0,13.695,2.674q5.545,0,8.149-1.839a5.671,5.671,0,0,0,2.6-4.848v-.336a4.807,4.807,0,0,0-1.512-3.513,12.742,12.742,0,0,0-4.117-2.59,60.646,60.646,0,0,0-5.964-2.091q-3.363-1-7.058-2.174a95.518,95.518,0,0,1-9.494-3.262,33.9,33.9,0,0,1-8.653-5.017,24.5,24.5,0,0,1-6.3-7.61,22.967,22.967,0,0,1-2.436-11.036v-.336a26.3,26.3,0,0,1,9.661-21.069,30.12,30.12,0,0,1,10.418-5.519,43.458,43.458,0,0,1,12.855-1.839,58.045,58.045,0,0,1,17.391,2.758q3.194,1,6.2,2.272a10.146,10.146,0,0,1,5.062,14.261l-.066.119a10.171,10.171,0,0,1-12.983,4.336q-2.45-1.074-4.851-1.923a34.385,34.385,0,0,0-11.259-2.258q-4.705,0-7.057,1.755a5.324,5.324,0,0,0-2.352,4.432v.336a4.361,4.361,0,0,0,1.512,3.261,16.771,16.771,0,0,0,4.032,2.675,53.42,53.42,0,0,0,5.8,2.426q3.276,1.169,6.972,2.339,4.7,1.5,9.578,3.6a39.529,39.529,0,0,1,8.738,5.1,25.34,25.34,0,0,1,6.385,7.358,20.685,20.685,0,0,1,2.521,10.536v.332a29.755,29.755,0,0,1-2.6,12.962,23.854,23.854,0,0,1-7.309,8.946,33.026,33.026,0,0,1-11.006,5.268A50.209,50.209,0,0,1,480.4,356.143Z" transform="translate(-445.583 -263.5)" fill="#fff"/>
      </g>
    </g>
    <g id="Grupo_245" data-name="Grupo 245" transform="translate(204.154 263.996)">
      <g id="Grupo_244" data-name="Grupo 244" transform="translate(0 0)">
        <path id="Caminho_435" data-name="Caminho 435" d="M359.081,356.385a11.5,11.5,0,0,1-9.812-5.484l-36.53-59.49-36.53,59.49a11.5,11.5,0,0,1-19.6-12.038l40.419-65.822a18.44,18.44,0,0,1,31.428,0l40.419,65.822a11.5,11.5,0,0,1-9.791,17.522Z" transform="translate(-254.904 -264.25)" fill="#fff"/>
      </g>
    </g>
    <g id="Grupo_246" data-name="Grupo 246" transform="translate(97.333 263.462)">
      <path id="Caminho_436" data-name="Caminho 436" d="M143.644,356.751a46.646,46.646,0,0,1,0-93.289,46,46,0,0,1,39.3,21.955,10.733,10.733,0,0,1-3.376,14.727,10.569,10.569,0,0,1-14.62-3.4,24.94,24.94,0,0,0-21.3-11.908,25.272,25.272,0,1,0,22.4,36.679,10.571,10.571,0,0,1,14.261-4.7,10.723,10.723,0,0,1,4.664,14.364A46.086,46.086,0,0,1,143.644,356.751Z" transform="translate(-97.333 -263.462)" fill="#fff"/>
    </g>
  </g>
</svg>
