<svg id="Group_161" data-name="Group 161" xmlns="http://www.w3.org/2000/svg" width="282" height="31.684" viewBox="0 0 282 31.684">
  <g id="Group_147" data-name="Group 147" transform="translate(190.925 0.174)">
    <g id="Group_146" data-name="Group 146">
      <path id="Path_388" data-name="Path 388" d="M565.819,364.76h.97a3.849,3.849,0,0,1,3.852,3.845v23.638a3.849,3.849,0,0,1-3.852,3.845h-.97a3.849,3.849,0,0,1-3.852-3.845V368.6A3.849,3.849,0,0,1,565.819,364.76Z" transform="translate(-561.967 -364.76)" fill="#4177a6"/>
    </g>
  </g>
  <g id="Group_149" data-name="Group 149" transform="translate(144.613 0.163)">
    <g id="Group_148" data-name="Group 148" transform="translate(0 0)">
      <path id="Path_389" data-name="Path 389" d="M454.738,396.024h0a6.221,6.221,0,0,1-5.336-2.986l-13.728-22.354a3.907,3.907,0,1,1,6.658-4.089l12.407,20.2,12.407-20.2a3.907,3.907,0,1,1,6.658,4.089l-13.728,22.355A6.222,6.222,0,0,1,454.738,396.024Z" transform="translate(-435.095 -364.731)" fill="#4177a6"/>
    </g>
  </g>
  <g id="Group_151" data-name="Group 151" transform="translate(108.455 0.181)">
    <g id="Group_150" data-name="Group 150" transform="translate(0 0)">
      <path id="Path_390" data-name="Path 390" d="M371.422,396.072a3.9,3.9,0,0,1-3.333-1.862l-12.407-20.2-12.407,20.2a3.907,3.907,0,0,1-6.658-4.089l13.728-22.355a6.262,6.262,0,0,1,10.674,0l13.728,22.354a3.907,3.907,0,0,1-3.325,5.951Z" transform="translate(-336.04 -364.78)" fill="#cf0025"/>
    </g>
  </g>
  <g id="Group_153" data-name="Group 153" transform="translate(80.183 0.009)">
    <g id="Group_152" data-name="Group 152" transform="translate(0 0)">
      <path id="Path_391" data-name="Path 391" d="M270.414,395.953a21.279,21.279,0,0,1-6.648-1.113,20.1,20.1,0,0,1-3.455-1.511,3.434,3.434,0,0,1-1.16-4.871h0a3.459,3.459,0,0,1,4.549-1.137,18.188,18.188,0,0,0,2.291,1.035,13.513,13.513,0,0,0,4.651.913,4.828,4.828,0,0,0,2.768-.628,1.941,1.941,0,0,0,.885-1.656v-.115a1.647,1.647,0,0,0-.514-1.2,4.323,4.323,0,0,0-1.4-.885,20.577,20.577,0,0,0-2.026-.714q-1.142-.342-2.4-.743a32.233,32.233,0,0,1-3.224-1.114A11.488,11.488,0,0,1,261.8,380.5a8.358,8.358,0,0,1-2.14-2.6,7.886,7.886,0,0,1-.828-3.77v-.115a9.007,9.007,0,0,1,3.281-7.2,10.222,10.222,0,0,1,3.538-1.885,14.694,14.694,0,0,1,4.366-.628,19.61,19.61,0,0,1,5.906.942q1.085.341,2.106.776a3.473,3.473,0,0,1,1.72,4.871l-.023.041a3.445,3.445,0,0,1-4.41,1.481q-.832-.367-1.647-.657a11.623,11.623,0,0,0-3.824-.771,3.968,3.968,0,0,0-2.4.6,1.822,1.822,0,0,0-.8,1.514v.115a1.494,1.494,0,0,0,.514,1.114,5.7,5.7,0,0,0,1.37.914,18.093,18.093,0,0,0,1.969.829q1.113.4,2.368.8,1.6.514,3.253,1.228a13.4,13.4,0,0,1,2.967,1.742,8.636,8.636,0,0,1,2.169,2.514,7.1,7.1,0,0,1,.856,3.6v.114a10.212,10.212,0,0,1-.884,4.427,8.134,8.134,0,0,1-2.483,3.056,11.184,11.184,0,0,1-3.738,1.8A16.969,16.969,0,0,1,270.414,395.953Z" transform="translate(-258.588 -364.308)" fill="#cf0025"/>
    </g>
  </g>
  <g id="Group_155" data-name="Group 155" transform="translate(36.28 0.181)">
    <g id="Group_154" data-name="Group 154" transform="translate(0 0)">
      <path id="Path_392" data-name="Path 392" d="M173.7,396.073a3.9,3.9,0,0,1-3.333-1.863l-12.407-20.2-12.407,20.2a3.906,3.906,0,1,1-6.658-4.088l13.728-22.355a6.263,6.263,0,0,1,10.674,0l13.728,22.355a3.907,3.907,0,0,1-3.325,5.951Z" transform="translate(-138.317 -364.781)" fill="#cf0025"/>
    </g>
  </g>
  <g id="Group_156" data-name="Group 156">
    <path id="Path_393" data-name="Path 393" d="M54.657,395.968a15.842,15.842,0,0,1,0-31.684A15.624,15.624,0,0,1,68,371.74a3.645,3.645,0,0,1-1.147,5,3.589,3.589,0,0,1-4.966-1.155,8.47,8.47,0,0,0-7.234-4.044A8.583,8.583,0,1,0,62.264,384a3.59,3.59,0,0,1,4.844-1.6,3.642,3.642,0,0,1,1.584,4.878A15.653,15.653,0,0,1,54.657,395.968Z" transform="translate(-38.928 -364.284)" fill="#cf0025"/>
  </g>
  <g id="Group_158" data-name="Group 158" transform="translate(242.714 0.209)">
    <g id="Group_157" data-name="Group 157" transform="translate(0)">
      <path id="Path_394" data-name="Path 394" d="M739.225,396.149a3.9,3.9,0,0,1-3.333-1.862l-12.407-20.2-12.407,20.2a3.907,3.907,0,0,1-6.658-4.089l13.728-22.356a6.262,6.262,0,0,1,10.674,0L742.55,390.2a3.907,3.907,0,0,1-3.325,5.951Z" transform="translate(-703.843 -364.856)" fill="#4177a6"/>
    </g>
  </g>
  <g id="Group_160" data-name="Group 160" transform="translate(206.627 0.163)">
    <g id="Group_159" data-name="Group 159" transform="translate(0 0)">
      <path id="Path_395" data-name="Path 395" d="M624.625,396.024a6.222,6.222,0,0,1-5.337-2.986L605.56,370.683a3.907,3.907,0,0,1,6.658-4.089l12.407,20.2,12.407-20.2a3.907,3.907,0,0,1,6.658,4.089l-13.728,22.355A6.221,6.221,0,0,1,624.625,396.024Z" transform="translate(-604.982 -364.731)" fill="#4177a6"/>
    </g>
  </g>
</svg>
