<svg xmlns="http://www.w3.org/2000/svg" width="435" height="238.206" viewBox="0 0 435 238.206">
  <g id="simulacao_icon" transform="translate(-207 -1570.995)">
    <g id="Grupo_214" data-name="Grupo 214" transform="translate(116.648 380.995)">
      <g id="Grupo_204" data-name="Grupo 204" transform="translate(434 1190)">
        <path id="Caminho_414" data-name="Caminho 414" d="M34.531,0A34.676,34.676,0,1,1,0,34.531,34.676,34.676,0,0,1,34.531,0Zm16.83,41.5c.58,7.545-5.513,11.027-12.478,11.607,0,2.321.29,5.223-2.9,5.223s-2.9-2.9-2.9-5.223c-4.062-.29-8.705-1.741-11.027-4.933-4.933-6.674,2.321-11.607,5.8-5.513,4.062,6.964,14.8,5.8,14.8.871,0-8.415-21.763-3.482-21.763-16.54,0-6.674,6.384-9.866,12.187-10.446,0-2.321-.58-5.8,2.9-5.8s2.9,3.772,2.9,6.094c3.482.29,7.835,2.031,9.866,4.933,3.192,5.223-2.321,8.415-5.513,5.8s-3.192-5.223-8.415-5.223c-2.031,0-5.513.871-5.513,3.482C28.727,32.5,50.2,29.6,51.361,41.5Z" fill="#fff" fill-rule="evenodd"/>
      </g>
    </g>
    <g id="Grupo_216" data-name="Grupo 216" transform="translate(163 487.995)">
      <g id="Grupo_204-2" data-name="Grupo 204" transform="translate(434 1190)">
        <path id="Caminho_414-2" data-name="Caminho 414" d="M22.406,0A22.5,22.5,0,1,1,0,22.406,22.5,22.5,0,0,1,22.406,0ZM33.326,26.925c.377,4.9-3.577,7.155-8.1,7.531,0,1.506.188,3.389-1.883,3.389s-1.883-1.883-1.883-3.389c-2.636-.188-5.649-1.13-7.155-3.2-3.2-4.331,1.506-7.531,3.766-3.577,2.636,4.519,9.6,3.766,9.6.565,0-5.46-14.121-2.259-14.121-10.732,0-4.331,4.142-6.4,7.908-6.778,0-1.506-.377-3.766,1.883-3.766s1.883,2.448,1.883,3.954c2.259.188,5.084,1.318,6.4,3.2,2.071,3.389-1.506,5.46-3.577,3.766S25.983,14.5,22.594,14.5c-1.318,0-3.577.565-3.577,2.259C18.64,21.088,32.573,19.205,33.326,26.925Z" fill="#fff" fill-rule="evenodd"/>
      </g>
    </g>
    <g id="Grupo_217" data-name="Grupo 217" transform="translate(94 532.995)">
      <g id="Grupo_204-3" data-name="Grupo 204" transform="translate(434 1190)">
        <path id="Caminho_414-3" data-name="Caminho 414" d="M41.824,0A42,42,0,1,1,0,41.824,42,42,0,0,1,41.824,0ZM62.209,50.259c.7,9.138-6.678,13.356-15.113,14.059,0,2.812.351,6.326-3.515,6.326s-3.515-3.515-3.515-6.326c-4.921-.351-10.544-2.109-13.356-5.975-5.975-8.084,2.812-14.059,7.029-6.678,4.921,8.435,17.925,7.029,17.925,1.054,0-10.192-26.36-4.218-26.36-20.033,0-8.084,7.732-11.95,14.762-12.653,0-2.812-.7-7.029,3.515-7.029S47.1,17.573,47.1,20.385c4.218.351,9.49,2.46,11.95,5.975,3.866,6.326-2.812,10.192-6.678,7.029S48.5,27.063,42.176,27.063c-2.46,0-6.678,1.054-6.678,4.218C34.795,39.364,60.8,35.849,62.209,50.259Z" fill="#fff" fill-rule="evenodd"/>
      </g>
    </g>
    <g id="Grupo_215" data-name="Grupo 215" transform="translate(204.5 1598.115)">
      <path id="Caminho_426" data-name="Caminho 426" d="M294.972,196.592V47.779H226.685V196.592H216.7V20.4H94.3V196.592H83.993V47.779H16.028V196.592H2.5v14.495h306V196.592ZM267.593,61.307h13.528V74.836H267.593Zm0,27.379h13.528v13.528H267.593Zm0,27.057h13.528v13.528H267.593Zm0,27.379h13.528v13.528H267.593Zm0,27.057h13.528v13.528H267.593ZM240.536,61.307h13.528V74.836H240.536Zm0,27.379h13.528v13.528H240.536Zm0,27.057h13.528v13.528H240.536Zm0,27.379h13.528v13.528H240.536Zm0,27.057h13.528v13.528H240.536ZM56.936,61.307H70.464V74.836H56.936Zm0,27.379H70.464v13.528H56.936Zm0,27.057H70.464v13.528H56.936Zm0,27.379H70.464v13.528H56.936Zm0,27.057H70.464v13.528H56.936ZM29.879,61.307H43.407V74.836H29.879Zm0,27.379H43.407v13.528H29.879Zm0,27.057H43.407v13.528H29.879Zm0,27.379H43.407v13.528H29.879Zm0,27.057H43.407v13.528H29.879Zm146.236,26.413H158.4V170.179h17.716ZM189.643,34.251h13.528V47.779H189.643Zm0,27.057h13.528V74.836H189.643Zm0,27.379h13.528v13.528H189.643Zm0,27.057h13.528v13.528H189.643Zm0,27.379h13.528v13.528H189.643ZM162.264,34.251h13.528V47.779H162.264Zm0,27.057h13.528V74.836H162.264Zm0,27.379h13.528v13.528H162.264Zm0,27.057h13.528v13.528H162.264Zm0,27.379h13.528v13.528H162.264ZM135.207,34.251h13.528V47.779H135.207Zm0,27.057h13.528V74.836H135.207Zm0,27.379h13.528v13.528H135.207Zm0,27.057h13.528v13.528H135.207Zm0,27.379h13.528v13.528H135.207ZM107.828,34.251h13.528V47.779H107.828Zm0,27.057h13.528V74.836H107.828Zm0,27.379h13.528v13.528H107.828Zm0,27.057h13.528v13.528H107.828Zm0,27.379h13.528v13.528H107.828Zm27.379,27.057h17.716v26.413H135.207Z" transform="translate(0 0)" fill="#fff"/>
    </g>
  </g>
</svg>
